PathFileType	4	(X/Y/Z)	C:/Users/beibeiliu/ov580/test_trc/capture2\sequence.14_training_dense_left.trc
DataRate	CameraRate	NumFrames	NumMarkers	Units	OrigDataRate	OrigDataStartFrame	OrigNumFrames
120	120	22	19	mm	120	151	400
Frame#	Time	ThumbCMC			ThumbMCP			ThumbIP			ThumbTip			IndexMCP			IndexPIP			IndexTip			MiddleMCP			MiddlePIP			MiddleTip			RingMCP			RingPIP			RingTip			PinkyMCP			PinkyPIP			PinkyTip			BackHand1			BackHand2			BackHand3	
		X0	Y0	Z0	X1	Y1	Z1	X2	Y2	Z2	X3	Y3	Z3	X4	Y4	Z4	X5	Y5	Z5	X6	Y6	Z6	X7	Y7	Z7	X8	Y8	Z8	X9	Y9	Z9	X10	Y10	Z10	X11	Y11	Z11	X12	Y12	Z12	X13	Y13	Z13	X14	Y14	Z14	X15	Y15	Z15	X16	Y16	Z16	X17	Y17	Z17	X18	Y18	Z18	
150	1.25	-92.4187	93.7329	-10.8477	-77.6095	93.5419	-45.7902	-72.3046	101.951	-68.8636	-86.7569	113.551	-91.8303	-96.5354	155.902	-41.0684	-84.3358	172.253	-59.555	-83.1026	184.682	-80.7511	-106.92	143.342	-65.0677	-89.4714	122.06	-80.7041	-89.6691	99.6179	-55.926	-115.056	133.718	-73.0426	-98.3389	110.275	-83.7232	-97.6655	90.4589	-58.0718	-147.788	126.915	-71.27	-142.884	137.665	-90.884	-147.168	153.469	-110.051	-146.349	113.253	-23.0553	-151.13	91.6717	-4.96293	-123.079	113.899	3.6529	
151	1.25833	-84.9584	91.3671	-9.56482	-78.3551	92.1527	-43.4277	-70.4112	103.947	-70.9534	-88.6227	114.533	-87.5389	-88.7659	154.895	-36.4412	-78.0705	169.969	-55.563	-73.0154	184.734	-77.3204	-102.388	144.147	-59.4071	-85.383	125.146	-80.4667	-88.3949	99.0185	-52.6325	-112.356	135.396	-72.2659	-95.9851	112.06	-82.0937	-95.7427	90.3038	-60.4622	-139.508	133.656	-67.4377	-138.94	142.066	-86.6238	-141.821	155.74	-102.545	-143.975	120.297	-22.4927	-149.831	95.8359	-2.95332	-119.396	115.499	1.16372	
152	1.26667	-84.4525	87.7505	-9.52232	-75.1454	85.7096	-41.5117	-68.6329	98.9689	-67.5839	-83.2049	113.792	-86.2255	-80.0049	153.862	-35.5733	-68.7017	168.425	-53.3223	-66.0333	182.31	-71.4795	-96.6615	144.797	-58.6699	-81.0568	125.229	-78.5349	-88.3742	98.1097	-54.258	-109.942	135.892	-66.4297	-96.334	113.509	-82.6909	-97.3547	88.3034	-56.4449	-139.895	134.261	-65.5785	-132.369	145.499	-82.9127	-134.61	160.046	-100.293	-138.868	118.34	-17.9648	-144.103	97.921	2.65449	-115.009	111.896	5.29194	
153	1.275	-85.4246	85.2993	-9.84212	-71.8366	85.1698	-43.2402	-71.4161	99.6695	-67.2115	-82.0473	112.161	-84.9395	-81.1971	150.081	-35.2274	-65.6283	168.459	-54.3984	-63.0111	182.644	-74.396	-90.3176	145.02	-59.306	-82.0518	123.056	-79.1953	-85.7468	97.5393	-52.3037	-112.075	134.94	-66.8106	-95.0633	109.913	-82.6501	-94.6391	88.7976	-59.9867	-134	135.275	-62.6527	-132.456	146.666	-84.4352	-133.553	161.003	-98.6164	-136.873	121.453	-20.0602	-144.836	96.4282	3.10783	-112.797	110.311	7.11266	
154	1.28333	-84.6022	84.4191	-10.3225	-70.0883	85.2161	-45.348	-67.5246	99.9766	-71.6088	-85.5884	112.8	-84.1613	-74.7876	152.685	-36.9403	-67.7216	165.661	-56.1681	-61.9568	179.06	-73.147	-92.8855	142.421	-59.6334	-79.211	121.172	-78.5889	-86.8881	95.852	-50.0159	-106.779	134.242	-64.2252	-95.8326	107.38	-82.2897	-96.4877	86.257	-58.5366	-135.568	133.676	-62.9927	-128.283	147.109	-81.8071	-131.911	158.848	-97.412	-133.54	119.58	-16.9931	-143.33	94.9438	2.77019	-108.137	110.674	4.4199	
155	1.29167	-83.7113	80.9518	-9.40049	-74.7842	85.6003	-45.6738	-68.4317	96.5029	-70.9063	-84.4127	113.662	-89.2654	-73.2968	147.95	-36.2627	-62.1591	164.188	-55.9232	-57.8344	178.817	-74.5846	-90.7908	141.219	-59.9911	-78.3175	115.629	-77.9358	-87.9565	94.2895	-53.0131	-105.109	132.979	-66.8885	-95.8508	108.175	-85.0507	-95.2006	85.0692	-58.89	-131.54	135.533	-65.7244	-129.866	143.839	-83.846	-131.697	159.489	-97.2346	-132.236	119.782	-17.0746	-141.398	95.8929	4.47717	-111.563	109.03	5.5054	
156	1.3	-82.1754	81.666	-12.8214	-74.2162	82.8976	-45.6792	-67.5211	94.9421	-73.3306	-81.1531	108.486	-91.9205	-75.974	148.591	-42.7244	-65.3062	161.24	-59.2343	-58.1994	175.505	-76.7241	-91.6301	139.378	-65.5608	-81.1206	115.225	-82.2086	-90.2939	92.1383	-53.1296	-107.902	130.772	-73.3664	-92.405	105.395	-83.5241	-96.5521	82.963	-58.5549	-131.266	131.202	-63.4977	-128.237	141.294	-82.3658	-134.41	157.628	-98.9748	-132.294	118.706	-20.7946	-139.018	96.3134	0.833974	-109.606	110.325	0.362391	
157	1.30833	-80.9335	77.7228	-11.7157	-74.3383	76.9418	-46.1546	-68.966	90.6655	-75.135	-86.5131	105.305	-90.8475	-72.1608	145.19	-41.9696	-63.683	157.001	-60.8468	-55.4774	173.829	-79.6672	-94.1835	136.388	-64.4533	-80.5452	111.819	-83.7271	-91.524	90.4854	-52.6557	-110.345	126.983	-74.1573	-95.6844	102.57	-85.3225	-98.8969	80.5372	-58.6124	-134.268	131.432	-67.4499	-130.231	139.596	-84.3647	-129.72	155.194	-102.007	-134.583	118.687	-23.2177	-141.743	96.1015	-0.770998	-105.773	107.182	2.49145	
158	1.31667	-83.2663	79.3938	-16.3355	-73.2064	77.5233	-51.4341	-73.4273	86.8213	-74.8708	-86.8082	100.187	-93.6035	-74.9011	144.848	-49.0512	-64.7514	156.117	-67.8758	-59.9858	170.395	-85.5244	-91.0396	133.773	-71.7678	-83.1957	110.508	-88.1406	-92.3485	88.0331	-58.8212	-109.502	124.019	-79.9218	-96.9011	98.2752	-88.0198	-100.474	76.8031	-63.5438	-136.866	129.305	-71.2065	-135.931	134.615	-88.3319	-135.346	151.153	-108.557	-134.009	114.35	-22.9281	-142.667	95.5891	-1.47468	-106.28	108.715	-0.7291	
159	1.325	-82.9191	75.6667	-17.0296	-73.8842	75.2368	-54.763	-74.2164	85.788	-81.3479	-91.4049	97.3832	-97.744	-73.4005	139.211	-51.4837	-63.9037	154.035	-75.5439	-63.1057	164.405	-92.6887	-96.4321	129.857	-73.4354	-88.5938	102.811	-90.9977	-92.9434	85.2077	-58.779	-113.603	119.751	-80.5798	-98.6248	93.8788	-90.2214	-100.697	75.4256	-62.445	-136.453	126.199	-72.3702	-133.978	132.246	-91.7138	-136.507	147.054	-107.41	-135.405	115.148	-24.4405	-141.754	97.524	-3.25628	-108.206	108.757	-5.68394	
160	1.33333	-85.1396	74.805	-18.5836	-76.326	71.8438	-54.2809	-74.8178	79.5237	-83.5232	-94.9281	94.1817	-102.187	-77.3182	138.666	-60.4878	-67.0126	147.461	-80.0959	-61.957	160.825	-102.275	-94.9181	125.148	-79.9576	-89.2464	97.6854	-92.7622	-95.9743	82.5917	-57.8207	-114.379	117.047	-81.2249	-104.917	85.0325	-92.4747	-104.322	71.1781	-65.4539	-140.543	120.802	-75.1618	-139.573	129.803	-98.9334	-138.997	144.518	-115.417	-130.763	117.129	-28.8448	-136.897	96.1769	-3.97833	-105.119	107.781	-5.38461	
161	1.34167	-84.5656	74.6429	-20.5144	-75.0919	66.7536	-57.133	-78.0522	75.2384	-85.2601	-95.6687	87.5037	-103.721	-74.9441	132.5	-64.4614	-66.8713	140.109	-85.6957	-65.0684	151.13	-112.074	-98.9458	119.443	-80.9102	-93.8327	91.5048	-95.9801	-98.0404	77.6619	-61.3649	-116.472	111.214	-87.8624	-104.823	83.606	-94.0708	-106.418	67.5088	-62.6436	-141.443	115.974	-76.5025	-138.78	121.989	-97.714	-145.645	134.173	-117.413	-132.421	114.562	-32.6798	-140.573	97.4969	-8.2753	-107.83	108.269	-11.7687	
162	1.35	-84.7013	75.024	-22.7946	-77.107	64.851	-58.4431	-77.5494	66.9068	-85.3007	-96.165	79.1272	-102.254	-74.7141	128.988	-70.2399	-69.2477	135.515	-97.8939	-65.0643	143.325	-120.198	-98.1635	113.626	-88.4684	-91.1969	82.3742	-95.6212	-95.8803	74.0924	-61.2746	-113.707	104.109	-91.2242	-108.608	76.2345	-94.6233	-107.525	63.1495	-64.3019	-142.087	114.213	-82.0187	-143.69	116.4	-102.343	-146.478	129.137	-124.352	-132.921	112.633	-33.7937	-138.066	99.1749	-9.36887	-102.695	107.069	-11.6876	
163	1.35833	-82.3236	73.0567	-24.5564	-78.1526	60.1745	-55.3973	-79.8024	63.9536	-88.7768	-97.0333	71.5074	-104.336	-75.6278	122.774	-76.3883	-69.444	127.746	-102.348	-65.8311	133.578	-122.925	-97.1042	106.95	-90.6655	-96.0367	77.9571	-98.5923	-96.2062	69.7328	-62.817	-117.276	99.4727	-90.4192	-108.417	70.9549	-95.8787	-105.155	60.784	-61.9656	-139.758	107.884	-82.7199	-140.858	110.826	-103.977	-145.84	118.508	-123.224	-133.326	111.909	-35.2008	-134.797	97.9164	-7.84266	-101.951	104.819	-14.0677	
164	1.36667	-83.825	71.4341	-25.5792	-79.4947	55.7722	-55.3708	-83.0943	58.5536	-85.1389	-97.5954	65.4144	-105.121	-73.2224	116.914	-81.7602	-66.228	118.893	-104.887	-65.3684	122.114	-126.62	-96.1839	101.629	-91.0165	-95.8904	69.5388	-97.3595	-99.5618	67.3686	-60.1246	-116.532	92.5944	-92.6051	-112.246	61.7891	-94.5737	-106.919	55.8984	-63.1252	-142.214	101.95	-84.1249	-138.53	104.79	-107.855	-141.629	114.091	-128.896	-132.409	107.774	-38.3883	-138.348	97.335	-8.76889	-101.488	106.451	-19.8234	
165	1.375	-81.7754	69.4929	-25.2718	-80.945	53.5142	-54.3845	-82.9186	52.5321	-85.2147	-100.182	59.4079	-102.765	-73.5512	110.604	-80.8503	-68.921	110.266	-110.102	-66.9922	112.392	-132.505	-99.2243	93.8602	-94.2668	-96.5039	61.4674	-95.4106	-96.1354	62.4223	-59.9407	-113.316	86.4007	-93.4158	-109.274	55.0729	-91.0216	-106.927	51.999	-60.0266	-138.461	98.9111	-87.6252	-143.161	97.3297	-106.721	-142.071	102.92	-128.39	-132.738	108.58	-39.9852	-134.043	100.684	-12.418	-103.908	106.039	-21.3748	
166	1.38333	-80.4838	66.1902	-24.4456	-78.6449	46.9252	-53.493	-79.3631	44.1551	-84.4431	-101.412	53.0315	-99.36	-73.7033	103.858	-82.6069	-66.7315	102.45	-111.265	-59.9041	102.46	-136.193	-97.0443	86.8008	-97.511	-96.0589	55.3386	-95.0031	-98.6809	58.2823	-58.3787	-119.103	80.8402	-94.2618	-110.512	50.8234	-90.9269	-111.664	47.528	-58.1758	-141.595	91.847	-90.6412	-138.239	89.3138	-110.913	-144.662	94.6982	-130.358	-132.599	105.762	-41.3744	-132.26	98.2033	-11.9166	-98.0322	102.611	-24.1836	
167	1.39167	-81.1554	63.5074	-20.5284	-80.0905	44.6787	-53.7339	-79.4547	37.5079	-79.2039	-100.265	44.5813	-101.415	-71.6562	98.909	-88.6505	-66.6131	94.5763	-113.757	-62.2183	91.7522	-137.675	-99.4437	80.7417	-97.0941	-97.4335	50.4503	-96.0747	-102.263	54.8634	-58.0501	-116.268	76.182	-92.0805	-112.252	43.3901	-88.7944	-111.268	44.8095	-54.1516	-138.801	86.9977	-88.1255	-142.501	81.389	-108.85	-147.253	86.1874	-130.097	-130.537	103.771	-45.2067	-133.004	96.8733	-13.7221	-97.7524	100.441	-26.8069	
168	1.4	-83.0998	63.127	-24.3043	-80.5643	39.7232	-47.8306	-84.7764	35.0001	-78.1075	-99.6865	37.3175	-99.987	-71.4536	92.5148	-88.3907	-66.7017	86.7538	-115.188	-63.746	82.8898	-138.525	-96.641	74.4404	-97.1741	-98.2937	44.0685	-94.4202	-100.62	52.0263	-54.8832	-116.226	66.1322	-95.197	-110.155	39.3492	-85.5941	-110.01	40.8272	-55.0645	-140.274	82.1021	-88.9248	-140.472	76.7112	-111.452	-143.546	77.7546	-129.943	-128.882	100.347	-44.5707	-133.843	96.7647	-16.1291	-97.0187	100.735	-25.5357	
169	1.40833	-80.2133	58.2004	-19.1008	-83.6432	38.3352	-49.2705	-86.5672	31.2351	-76.5133	-101.055	32.2149	-94.118	-70.8301	86.0573	-88.7697	-62.8566	78.4928	-112.93	-61.0893	72.3904	-135.327	-99.9193	69.8413	-96.1234	-95.9221	37.418	-90.287	-99.9234	44.1699	-56.1368	-117.056	65.2477	-92.2422	-116	32.6991	-84.9222	-112.421	38.5194	-48.1374	-137.38	77.4734	-89.5055	-144.142	68.6785	-108.866	-147.12	68.9078	-130.064	-126.473	96.784	-44.9474	-129.972	97.5908	-14.4521	-98.3797	98.1726	-27.6617	
170	1.41667	-79.4848	57.518	-23.4074	-79.5892	30.7956	-46.515	-83.3277	23.3231	-71.1654	-103.759	26.9695	-94.6773	-70.8373	79.0068	-92.7122	-64.8879	70.8274	-113.129	-62.385	63.1718	-137.419	-99.2591	62.1906	-97.7114	-95.7138	31.1113	-88.2274	-103.899	41.8984	-55.4554	-118.441	54.9773	-94.6848	-113.239	27.5385	-80.4452	-111.558	33.1519	-50.7196	-141.924	72.2139	-88.4269	-140.669	63.2883	-106.068	-144.757	60.3296	-132.709	-129.758	92.9167	-46.8357	-132.374	95.6362	-16.9773	-98.1748	95.9141	-28.2402	
171	1.425	-79.0763	55.7071	-20.7762	-83.1626	30.0028	-44.5044	-87.3959	21.0408	-71.6315	-102.059	21.95	-88.605	-69.4408	71.7994	-93.1786	-66.7362	61.8379	-113.191	-62.6431	52.5455	-137.519	-98.0952	57.4018	-96.5011	-97.6761	28.0211	-90.3089	-101.212	38.5422	-52.4382	-115.806	53.2616	-92.0362	-115.437	24.704	-83.0158	-111.416	31.6204	-46.3882	-140.905	67.7696	-87.0089	-141.301	58.2183	-107.961	-144.087	54.1208	-128.083	-128.004	90.7352	-51.9006	-129.786	95.3554	-16.0408	-93.5116	91.9432	-28.6605	
